<svg width="438" height="305" viewBox="0 0 610 390" fill="none" xmlns="http://www.w3.org/2000/svg">
  <rect width="610" height="390" rx="12" fill="url(#paint0_linear_589_1054)" />
  <g opacity="0.6">
    <path
      d="M166.019 199.396C168.063 197.352 169.211 194.58 169.211 191.689C169.211 188.798 168.063 186.026 166.019 183.981"
      stroke="white" stroke-width="5" stroke-linecap="round" stroke-linejoin="round" />
    <path
      d="M174.405 204.511C177.309 200.867 178.889 196.346 178.889 191.686C178.888 187.027 177.306 182.506 174.402 178.862"
      stroke="white" stroke-width="5" stroke-linecap="round" stroke-linejoin="round" />
    <path
      d="M181.799 209.555C185.689 204.442 187.803 198.199 187.822 191.775C187.841 185.35 185.762 179.095 181.903 173.959"
      stroke="white" stroke-width="5" stroke-linecap="round" stroke-linejoin="round" />
    <path
      d="M190.055 168.709C195.047 175.605 197.658 183.939 197.493 192.45C197.327 200.962 194.395 209.188 189.138 215.885"
      stroke="white" stroke-width="5" stroke-linecap="round" stroke-linejoin="round" />
  </g>
  <rect x="65.5" y="159.55" width="84.75" height="61.4861" rx="12.5" fill="url(#paint1_linear_589_1054)"
    stroke="url(#paint2_linear_589_1054)" />
  <mask id="mask0_589_1054" style="mask-type:alpha" maskUnits="userSpaceOnUse" x="66" y="160" width="84" height="61">
    <rect x="66.5" y="160.55" width="82.75" height="59.4861" rx="11.5" fill="#DCD59E" stroke="black" />
  </mask>
  <g mask="url(#mask0_589_1054)">
    <path opacity="0.5" fill-rule="evenodd" clip-rule="evenodd"
      d="M109.847 162.031C109.115 160.54 106.989 160.54 106.257 162.031L98.7313 177.358C98.7313 177.358 102.46 188.618 98.7313 201.46L106.222 218.437C106.924 220.027 109.18 220.027 109.882 218.437L117.373 201.46C117.373 201.46 113.645 194.481 117.373 177.358L109.847 162.031Z"
      stroke="#BFB985" stroke-width="1.3" stroke-linejoin="bevel" />
    <path opacity="0.5" d="M65.1763 177.276H98.4949" stroke="#BFB985" stroke-width="1.3" stroke-linejoin="bevel" />
    <path opacity="0.5" d="M116.581 177.276H150.852" stroke="#BFB985" stroke-width="1.3" stroke-linejoin="bevel" />
    <path opacity="0.5" d="M65.1763 201.275H98.4949" stroke="#BFB985" stroke-width="1.3" stroke-linejoin="bevel" />
    <path opacity="0.5" d="M116.581 201.275H150.852" stroke="#BFB985" stroke-width="1.3" stroke-linejoin="bevel" />
  </g>
  <path fill-rule="evenodd" clip-rule="evenodd"
    d="M144.179 46.1115C144.75 45.5252 145.198 44.8312 145.497 44.07C145.797 43.3087 145.942 42.4955 145.924 41.6777C145.906 40.8598 145.726 40.0537 145.393 39.3062C145.061 38.5588 144.583 37.8851 143.987 37.3242C140.22 33.7533 135.494 31.3575 130.387 30.4299C125.28 29.5023 120.013 30.0831 115.231 32.1012C110.449 34.1193 106.358 37.4873 103.46 41.7933C100.561 46.0992 98.9802 51.1565 98.9103 56.3467C98.9802 61.5369 100.561 66.5942 103.46 70.9002C106.358 75.2061 110.449 78.5741 115.231 80.5922C120.013 82.6103 125.28 83.1911 130.387 82.2635C135.494 81.3359 140.22 78.9401 143.987 75.3692C144.583 74.8084 145.061 74.1346 145.393 73.3872C145.726 72.6398 145.906 71.8336 145.924 71.0158C145.942 70.1979 145.797 69.3847 145.497 68.6235C145.198 67.8622 144.75 67.1683 144.179 66.5819C143.019 65.392 141.438 64.7055 139.776 64.6702C138.114 64.635 136.506 65.2539 135.296 66.3936C132.613 68.9258 129.048 70.3133 125.359 70.2619C121.67 70.2105 118.146 68.7242 115.534 66.1182C114.249 64.8361 113.23 63.3131 112.534 61.6363C111.838 59.9596 111.48 58.1621 111.48 56.3467C111.48 54.5314 111.838 52.7339 112.534 51.0571C113.23 49.3804 114.249 47.8573 115.534 46.5752C118.146 43.9692 121.67 42.483 125.359 42.4316C129.048 42.3802 132.613 43.7676 135.296 46.2998C136.506 47.4397 138.115 48.0586 139.776 48.023C141.438 47.9875 143.019 47.3003 144.179 46.1097V46.1115ZM40.9133 38.6779C46.5654 33.0891 54.2029 29.9695 62.1514 30.0031C70.0999 29.9695 77.7374 33.0891 83.3895 38.6779C89.0416 44.2666 92.2469 51.8685 92.3028 59.8169C92.303 63.7397 91.5193 67.623 89.9978 71.2387C88.4763 74.8543 86.2476 78.1295 83.4427 80.8719C82.2576 82.0364 80.6626 82.6889 79.0011 82.6889C77.3396 82.6889 75.7446 82.0364 74.5595 80.8719C73.9763 80.298 73.5132 79.6139 73.1971 78.8593C72.8809 78.1046 72.7181 77.2947 72.7181 76.4765C72.7181 75.6583 72.8809 74.8484 73.1971 74.0937C73.5132 73.3391 73.9763 72.6549 74.5595 72.0811C76.1903 70.4772 77.4856 68.5648 78.3698 66.4552C79.2539 64.3457 79.7093 62.0812 79.7093 59.7938C79.7093 57.5065 79.2539 55.242 78.3698 53.1324C77.4856 51.0229 76.1903 49.1104 74.5595 47.5066C71.2447 44.2455 66.781 42.4179 62.131 42.4179C57.481 42.4179 53.0173 44.2455 49.7025 47.5066C48.0716 49.1104 46.7764 51.0229 45.8922 53.1324C45.008 55.242 44.5527 57.5065 44.5527 59.7938C44.5527 62.0812 45.008 64.3457 45.8922 66.4552C46.7764 68.5648 48.0716 70.4772 49.7025 72.0811C50.2856 72.6549 50.7488 73.3391 51.0649 74.0937C51.381 74.8484 51.5438 75.6583 51.5438 76.4765C51.5438 77.2947 51.381 78.1046 51.0649 78.8593C50.7488 79.6139 50.2856 80.298 49.7025 80.8719C48.5174 82.0364 46.9224 82.6889 45.2609 82.6889C43.5994 82.6889 42.0044 82.0364 40.8193 80.8719C38.0217 78.1261 35.8006 74.8494 34.2862 71.2339C32.7718 67.6183 31.9945 63.7368 32 59.8169C32.0559 51.8685 35.2613 44.2666 40.9133 38.6779ZM177.704 30.0046C170.679 29.9724 163.928 32.7281 158.932 37.6672C153.936 42.6062 151.103 49.3253 151.055 56.3504C151.055 63.4183 153.862 70.1967 158.86 75.1945C163.858 80.1923 170.636 83 177.704 83C184.772 83 191.551 80.1923 196.548 75.1945C201.546 70.1967 204.354 63.4183 204.354 56.3504C204.306 49.3253 201.473 42.6062 196.477 37.6672C191.481 32.7281 184.729 29.9724 177.704 30.0046ZM177.704 70.265C174.959 70.2338 172.284 69.3912 170.016 67.8431C167.748 66.295 165.989 64.1107 164.96 61.5651C163.931 59.0195 163.678 56.2264 164.233 53.5374C164.788 50.8483 166.126 48.3834 168.078 46.453C170.031 44.5227 172.511 43.213 175.206 42.6889C177.901 42.1648 180.691 42.4498 183.225 43.5078C185.759 44.5659 187.923 46.3498 189.445 48.635C190.967 50.9203 191.779 53.6047 191.779 56.3504C191.768 58.1882 191.396 60.0059 190.683 61.6998C189.97 63.3937 188.93 64.9306 187.623 66.2227C186.316 67.5148 184.768 68.5368 183.066 69.2304C181.364 69.924 179.542 70.2756 177.704 70.265ZM240.846 30.0046C232.898 29.9714 225.261 33.0912 219.609 38.6799C213.958 44.2687 210.753 51.8703 210.697 59.8184C210.691 63.739 211.468 67.6213 212.983 71.2374C214.498 74.8536 216.72 78.1309 219.518 80.8769C220.703 82.0414 222.298 82.6939 223.959 82.6939C225.621 82.6939 227.216 82.0414 228.401 80.8769C228.984 80.3031 229.447 79.6189 229.763 78.8643C230.08 78.1096 230.242 77.2997 230.242 76.4815C230.242 75.6633 230.08 74.8534 229.763 74.0987C229.447 73.3441 228.984 72.66 228.401 72.0861C226.77 70.4823 225.475 68.5699 224.591 66.4605C223.707 64.3511 223.252 62.0869 223.252 59.7997C223.252 57.5126 223.707 55.2483 224.591 53.1389C225.475 51.0295 226.77 49.1172 228.401 47.5134C231.716 44.2524 236.179 42.4249 240.829 42.4249C245.478 42.4249 249.942 44.2524 253.256 47.5134C254.887 49.1172 256.182 51.0295 257.066 53.1389C257.95 55.2483 258.405 57.5126 258.405 59.7997C258.405 62.0869 257.95 64.3511 257.066 66.4605C256.182 68.5699 254.887 70.4823 253.256 72.0861C252.673 72.6598 252.21 73.3438 251.894 74.0983C251.578 74.8528 251.415 75.6626 251.415 76.4806C251.415 77.2986 251.578 78.1085 251.894 78.8629C252.21 79.6174 252.673 80.3014 253.256 80.8751C254.441 82.0396 256.036 82.6921 257.698 82.6921C259.359 82.6921 260.954 82.0396 262.139 80.8751C264.945 78.1326 267.173 74.8571 268.695 71.2411C270.216 67.6251 271 63.7415 270.999 59.8184C270.944 51.8697 267.738 44.2675 262.086 38.6787C256.433 33.0899 248.795 29.9705 240.846 30.0046ZM131.839 56.3143C131.858 59.7446 129.061 62.5409 125.591 62.5601C122.122 62.5793 119.294 59.8141 119.275 56.3838C119.256 52.9536 122.053 50.1572 125.523 50.138C128.992 50.1188 131.82 52.884 131.839 56.3143Z"
    fill="white" />
  <path
    d="M546.233 325.475C543.444 324.48 540.496 323.981 537.528 324.001C527.93 324.001 521.151 328.734 521.103 335.529C521.043 340.52 525.92 343.333 529.609 345.001C533.395 346.716 534.661 347.797 534.649 349.329C534.625 351.661 531.625 352.718 528.836 352.718C525.002 352.718 522.908 352.195 519.687 350.886L518.493 350.339L517.131 358.162C519.465 359.113 523.67 359.93 528.014 360C538.218 360 544.889 355.296 544.967 348.067C545.051 344.079 542.411 341.067 536.856 338.577C533.479 336.962 531.385 335.881 531.385 334.242C531.385 332.792 533.179 331.242 536.928 331.242C539.424 331.182 541.904 331.641 544.205 332.586L545.105 332.98L546.467 325.422L546.233 325.475ZM571.141 324.635H563.642C561.309 324.635 559.551 325.263 558.531 327.53L544.109 359.513H554.314L556.353 354.268L568.808 354.28C569.101 355.507 570.001 359.513 570.001 359.513H579L571.141 324.635ZM507.299 324.341H517.023L510.94 359.237H501.228L507.299 324.329V324.341ZM482.612 343.574L483.62 348.419L493.123 324.635H503.423L488.12 359.466H477.843L469.444 329.973C469.308 329.487 468.989 329.069 468.551 328.804C465.523 327.274 462.316 326.112 459 325.345L459.132 324.611H474.784C476.907 324.694 478.617 325.345 479.187 327.565L482.606 343.592V343.574H482.612ZM559.143 347.133L563.018 337.373C562.97 337.478 563.816 335.358 564.308 334.049L564.974 337.061L567.224 347.127H559.137V347.133H559.143Z"
    fill="white" />
  <path
    d="M44.576 341.32V343.552H40.136V358H37.4V343.552H32.936V341.32H44.576ZM57.4029 354.592H50.4189L49.2189 358H46.3629L52.3389 341.296H55.5069L61.4829 358H58.6029L57.4029 354.592ZM56.6349 352.36L53.9229 344.608L51.1869 352.36H56.6349ZM66.8173 355.792H72.4573V358H64.0813V341.32H66.8173V355.792ZM77.4813 341.32V358H74.7453V341.32H77.4813ZM86.5694 358.168C85.4494 358.168 84.4414 357.976 83.5454 357.592C82.6494 357.192 81.9454 356.632 81.4334 355.912C80.9214 355.192 80.6654 354.352 80.6654 353.392H83.5934C83.6574 354.112 83.9374 354.704 84.4334 355.168C84.9454 355.632 85.6574 355.864 86.5694 355.864C87.5134 355.864 88.2494 355.64 88.7774 355.192C89.3054 354.728 89.5694 354.136 89.5694 353.416C89.5694 352.856 89.4014 352.4 89.0654 352.048C88.7454 351.696 88.3374 351.424 87.8414 351.232C87.3614 351.04 86.6894 350.832 85.8254 350.608C84.7374 350.32 83.8494 350.032 83.1614 349.744C82.4894 349.44 81.9134 348.976 81.4334 348.352C80.9534 347.728 80.7134 346.896 80.7134 345.856C80.7134 344.896 80.9534 344.056 81.4334 343.336C81.9134 342.616 82.5854 342.064 83.4494 341.68C84.3134 341.296 85.3134 341.104 86.4494 341.104C88.0654 341.104 89.3854 341.512 90.4094 342.328C91.4494 343.128 92.0254 344.232 92.1374 345.64H89.1134C89.0654 345.032 88.7774 344.512 88.2494 344.08C87.7214 343.648 87.0254 343.432 86.1614 343.432C85.3774 343.432 84.7374 343.632 84.2414 344.032C83.7454 344.432 83.4974 345.008 83.4974 345.76C83.4974 346.272 83.6494 346.696 83.9534 347.032C84.2734 347.352 84.6734 347.608 85.1534 347.8C85.6334 347.992 86.2894 348.2 87.1214 348.424C88.2254 348.728 89.1214 349.032 89.8094 349.336C90.5134 349.64 91.1054 350.112 91.5854 350.752C92.0814 351.376 92.3294 352.216 92.3294 353.272C92.3294 354.12 92.0974 354.92 91.6334 355.672C91.1854 356.424 90.5214 357.032 89.6414 357.496C88.7774 357.944 87.7534 358.168 86.5694 358.168ZM101.054 358.168C99.9338 358.168 98.9258 357.976 98.0298 357.592C97.1338 357.192 96.4298 356.632 95.9178 355.912C95.4058 355.192 95.1498 354.352 95.1498 353.392H98.0778C98.1418 354.112 98.4218 354.704 98.9178 355.168C99.4298 355.632 100.142 355.864 101.054 355.864C101.998 355.864 102.734 355.64 103.262 355.192C103.79 354.728 104.054 354.136 104.054 353.416C104.054 352.856 103.886 352.4 103.55 352.048C103.23 351.696 102.822 351.424 102.326 351.232C101.846 351.04 101.174 350.832 100.31 350.608C99.2218 350.32 98.3338 350.032 97.6458 349.744C96.9738 349.44 96.3978 348.976 95.9178 348.352C95.4378 347.728 95.1978 346.896 95.1978 345.856C95.1978 344.896 95.4378 344.056 95.9178 343.336C96.3978 342.616 97.0698 342.064 97.9338 341.68C98.7978 341.296 99.7978 341.104 100.934 341.104C102.55 341.104 103.87 341.512 104.894 342.328C105.934 343.128 106.51 344.232 106.622 345.64H103.598C103.55 345.032 103.262 344.512 102.734 344.08C102.206 343.648 101.51 343.432 100.646 343.432C99.8618 343.432 99.2218 343.632 98.7258 344.032C98.2298 344.432 97.9818 345.008 97.9818 345.76C97.9818 346.272 98.1338 346.696 98.4378 347.032C98.7578 347.352 99.1578 347.608 99.6378 347.8C100.118 347.992 100.774 348.2 101.606 348.424C102.71 348.728 103.606 349.032 104.294 349.336C104.998 349.64 105.59 350.112 106.07 350.752C106.566 351.376 106.814 352.216 106.814 353.272C106.814 354.12 106.582 354.92 106.118 355.672C105.67 356.424 105.006 357.032 104.126 357.496C103.262 357.944 102.238 358.168 101.054 358.168ZM117.65 358.168C116.098 358.168 114.666 357.808 113.354 357.088C112.058 356.352 111.026 355.336 110.258 354.04C109.506 352.728 109.13 351.256 109.13 349.624C109.13 347.992 109.506 346.528 110.258 345.232C111.026 343.936 112.058 342.928 113.354 342.208C114.666 341.472 116.098 341.104 117.65 341.104C119.218 341.104 120.65 341.472 121.946 342.208C123.258 342.928 124.29 343.936 125.042 345.232C125.794 346.528 126.17 347.992 126.17 349.624C126.17 351.256 125.794 352.728 125.042 354.04C124.29 355.336 123.258 356.352 121.946 357.088C120.65 357.808 119.218 358.168 117.65 358.168ZM117.65 355.792C118.754 355.792 119.738 355.544 120.602 355.048C121.466 354.536 122.138 353.816 122.618 352.888C123.114 351.944 123.362 350.856 123.362 349.624C123.362 348.392 123.114 347.312 122.618 346.384C122.138 345.456 121.466 344.744 120.602 344.248C119.738 343.752 118.754 343.504 117.65 343.504C116.546 343.504 115.562 343.752 114.698 344.248C113.834 344.744 113.154 345.456 112.658 346.384C112.178 347.312 111.938 348.392 111.938 349.624C111.938 350.856 112.178 351.944 112.658 352.888C113.154 353.816 113.834 354.536 114.698 355.048C115.562 355.544 116.546 355.792 117.65 355.792ZM142.567 358H139.831L131.599 345.544V358H128.863V341.296H131.599L139.831 353.728V341.296H142.567V358ZM161.322 349.432C162.218 349.592 162.978 350.064 163.602 350.848C164.226 351.632 164.538 352.52 164.538 353.512C164.538 354.36 164.314 355.128 163.866 355.816C163.434 356.488 162.802 357.024 161.97 357.424C161.138 357.808 160.17 358 159.066 358H152.394V341.32H158.754C159.89 341.32 160.866 341.512 161.682 341.896C162.498 342.28 163.114 342.8 163.53 343.456C163.946 344.096 164.154 344.816 164.154 345.616C164.154 346.576 163.898 347.376 163.386 348.016C162.874 348.656 162.186 349.128 161.322 349.432ZM155.13 348.328H158.514C159.41 348.328 160.106 348.128 160.602 347.728C161.114 347.312 161.37 346.72 161.37 345.952C161.37 345.2 161.114 344.616 160.602 344.2C160.106 343.768 159.41 343.552 158.514 343.552H155.13V348.328ZM158.826 355.768C159.754 355.768 160.482 355.544 161.01 355.096C161.538 354.648 161.802 354.024 161.802 353.224C161.802 352.408 161.522 351.76 160.962 351.28C160.402 350.8 159.658 350.56 158.73 350.56H155.13V355.768H158.826ZM177.567 354.592H170.583L169.383 358H166.527L172.503 341.296H175.671L181.647 358H178.767L177.567 354.592ZM176.799 352.36L174.087 344.608L171.351 352.36H176.799ZM192.909 358L189.069 351.328H186.981V358H184.245V341.32H190.005C191.285 341.32 192.365 341.544 193.245 341.992C194.141 342.44 194.805 343.04 195.237 343.792C195.685 344.544 195.909 345.384 195.909 346.312C195.909 347.4 195.589 348.392 194.949 349.288C194.325 350.168 193.357 350.768 192.045 351.088L196.173 358H192.909ZM186.981 349.144H190.005C191.029 349.144 191.797 348.888 192.309 348.376C192.837 347.864 193.101 347.176 193.101 346.312C193.101 345.448 192.845 344.776 192.333 344.296C191.821 343.8 191.045 343.552 190.005 343.552H186.981V349.144ZM208.337 349.432C209.233 349.592 209.993 350.064 210.617 350.848C211.241 351.632 211.553 352.52 211.553 353.512C211.553 354.36 211.329 355.128 210.881 355.816C210.449 356.488 209.817 357.024 208.985 357.424C208.153 357.808 207.185 358 206.081 358H199.409V341.32H205.769C206.905 341.32 207.881 341.512 208.697 341.896C209.513 342.28 210.129 342.8 210.545 343.456C210.961 344.096 211.169 344.816 211.169 345.616C211.169 346.576 210.913 347.376 210.401 348.016C209.889 348.656 209.201 349.128 208.337 349.432ZM202.145 348.328H205.529C206.425 348.328 207.121 348.128 207.617 347.728C208.129 347.312 208.385 346.72 208.385 345.952C208.385 345.2 208.129 344.616 207.617 344.2C207.121 343.768 206.425 343.552 205.529 343.552H202.145V348.328ZM205.841 355.768C206.769 355.768 207.497 355.544 208.025 355.096C208.553 354.648 208.817 354.024 208.817 353.224C208.817 352.408 208.537 351.76 207.977 351.28C207.417 350.8 206.673 350.56 205.745 350.56H202.145V355.768H205.841ZM222.135 358.168C220.583 358.168 219.151 357.808 217.839 357.088C216.543 356.352 215.511 355.336 214.743 354.04C213.991 352.728 213.615 351.256 213.615 349.624C213.615 347.992 213.991 346.528 214.743 345.232C215.511 343.936 216.543 342.928 217.839 342.208C219.151 341.472 220.583 341.104 222.135 341.104C223.703 341.104 225.135 341.472 226.431 342.208C227.743 342.928 228.775 343.936 229.527 345.232C230.279 346.528 230.655 347.992 230.655 349.624C230.655 351.256 230.279 352.728 229.527 354.04C228.775 355.336 227.743 356.352 226.431 357.088C225.135 357.808 223.703 358.168 222.135 358.168ZM222.135 355.792C223.239 355.792 224.223 355.544 225.087 355.048C225.951 354.536 226.623 353.816 227.103 352.888C227.599 351.944 227.847 350.856 227.847 349.624C227.847 348.392 227.599 347.312 227.103 346.384C226.623 345.456 225.951 344.744 225.087 344.248C224.223 343.752 223.239 343.504 222.135 343.504C221.031 343.504 220.047 343.752 219.183 344.248C218.319 344.744 217.639 345.456 217.143 346.384C216.663 347.312 216.423 348.392 216.423 349.624C216.423 350.856 216.663 351.944 217.143 352.888C217.639 353.816 218.319 354.536 219.183 355.048C220.047 355.544 221.031 355.792 222.135 355.792ZM238.843 358.168C237.723 358.168 236.715 357.976 235.819 357.592C234.923 357.192 234.219 356.632 233.707 355.912C233.195 355.192 232.939 354.352 232.939 353.392H235.867C235.931 354.112 236.211 354.704 236.707 355.168C237.219 355.632 237.931 355.864 238.843 355.864C239.787 355.864 240.523 355.64 241.051 355.192C241.579 354.728 241.843 354.136 241.843 353.416C241.843 352.856 241.675 352.4 241.339 352.048C241.019 351.696 240.611 351.424 240.115 351.232C239.635 351.04 238.963 350.832 238.099 350.608C237.011 350.32 236.123 350.032 235.435 349.744C234.763 349.44 234.187 348.976 233.707 348.352C233.227 347.728 232.987 346.896 232.987 345.856C232.987 344.896 233.227 344.056 233.707 343.336C234.187 342.616 234.859 342.064 235.723 341.68C236.587 341.296 237.587 341.104 238.723 341.104C240.339 341.104 241.659 341.512 242.683 342.328C243.723 343.128 244.299 344.232 244.411 345.64H241.387C241.339 345.032 241.051 344.512 240.523 344.08C239.995 343.648 239.299 343.432 238.435 343.432C237.651 343.432 237.011 343.632 236.515 344.032C236.019 344.432 235.771 345.008 235.771 345.76C235.771 346.272 235.923 346.696 236.227 347.032C236.547 347.352 236.947 347.608 237.427 347.8C237.907 347.992 238.563 348.2 239.395 348.424C240.499 348.728 241.395 349.032 242.083 349.336C242.787 349.64 243.379 350.112 243.859 350.752C244.355 351.376 244.603 352.216 244.603 353.272C244.603 354.12 244.371 354.92 243.907 355.672C243.459 356.424 242.795 357.032 241.915 357.496C241.051 357.944 240.027 358.168 238.843 358.168ZM257.887 354.592H250.903L249.703 358H246.847L252.823 341.296H255.991L261.967 358H259.087L257.887 354.592ZM257.119 352.36L254.407 344.608L251.671 352.36H257.119Z"
    fill="white" />
  <defs>
    <linearGradient id="paint0_linear_589_1054" x1="31" y1="99" x2="613.125" y2="248.281"
      gradientUnits="userSpaceOnUse">
      <stop stop-color="#00A5F0" />
      <stop offset="1" stop-color="#00D7D7" />
    </linearGradient>
    <linearGradient id="paint1_linear_589_1054" x1="107.875" y1="160.05" x2="136.722" y2="243.521"
      gradientUnits="userSpaceOnUse">
      <stop stop-color="#DCD59E" />
      <stop offset="1" stop-color="#CBBB82" />
    </linearGradient>
    <linearGradient id="paint2_linear_589_1054" x1="71.5833" y1="163.493" x2="107.875" y2="220.536"
      gradientUnits="userSpaceOnUse">
      <stop stop-color="#FBF3C0" />
      <stop offset="1" stop-color="#CCBC84" />
    </linearGradient>
  </defs>
</svg>